<?xml version="1.0" standalone="no"?>
<!DOCTYPE svg PUBLIC "-//W3C//DTD SVG 20010904//EN" "http://www.w3.org/TR/2001/REC-SVG-20010904/DTD/svg10.dtd">
<!-- Created using Krita: https://krita.org -->
<svg xmlns="http://www.w3.org/2000/svg" 
    xmlns:xlink="http://www.w3.org/1999/xlink"
    xmlns:krita="http://krita.org/namespaces/svg/krita"
    xmlns:sodipodi="http://sodipodi.sourceforge.net/DTD/sodipodi-0.dtd"
    width="840pt"
    height="648pt"
    viewBox="0 0 840 648">
<defs/>
<path id="shape0" transform="matrix(0.99999999267263 0 0 0.99999999267263 139.943596410346 32.7599975517922)" fill="#ffffff" fill-rule="evenodd" stroke="#ffffff" stroke-width="0.24" stroke-linecap="square" stroke-linejoin="bevel" d="M86.8968 363.485L109.577 411.315L52.5364 448.68L177.936 582.48L213.336 512.52L235.896 525.48C229.976 548.68 224.056 571.88 218.136 595.08L427.416 594.12L403.416 524.04L413.976 515.4L460.536 607.56L635.256 439.08L540.216 397.8L545.976 379.56L646.296 420.84L617.976 175.56L547.896 213.48L538.776 183.72L588.216 146.28L446.136 17.64L420.216 81.72L393.816 61.8L415.896 11.16L213.576 5.04L237.336 66.24L213.576 75.24L175.776 0L26.4356 145.858L100.298 186.954L86.1465 230.937L3.48087 193.063L0 389.648C0 389.648 28.9656 380.928 86.8968 363.485Z" sodipodi:nodetypes="ccccccccccccccccccccccccccccccccc"/><path id="shape01" transform="matrix(0.99999999267263 0 0 0.99999999267263 157.223596148951 48)" fill="#8aa29e" fill-rule="evenodd" stroke="#ffffff" stroke-width="0.24" stroke-linecap="square" stroke-linejoin="bevel" d="M82.7155 347.948L104.305 393.477L40.7586 426.371L151.882 538.026L190.163 480.21L234.855 499.735L220.229 570.22L384.81 563.7L367.189 499.735L404.37 483.348L447.894 563.172L595.719 426.568L508.863 393.304L522.96 351.013L612.456 379.524L595.735 183.084L523.313 216.211L507.101 169.163L557.646 125.135L448.995 33.9831L411.771 85.4625L367.041 59.6633L372.32 0L218.057 5.00813L231.521 64.4075L190.279 85.3403L149.037 7.71433L25.1636 140.793L95.4719 179.912L82.0013 221.778L3.31338 185.727L0 372.853C0 372.853 27.5718 364.552 82.7155 347.948Z" sodipodi:nodetypes="ccccccccccccccccccccccccccccccccc"/><path id="shape02" transform="matrix(0.99999999267263 0 0 0.99999999267263 323.999999244288 66.2399999574562)" fill="#ffffff" fill-rule="evenodd" stroke="#ffffff" stroke-width="0.24" stroke-linecap="square" stroke-linejoin="bevel" d="M38.4422 165.193L48.4757 186.809L18.9426 202.426L70.5876 255.436L88.3785 227.986L109.149 237.256L102.352 270.72L178.841 267.625L170.652 237.256L187.931 229.476L208.159 267.374L276.861 202.519L236.495 186.727L243.046 166.648L284.64 180.184L276.869 86.9215L243.21 102.649L235.676 80.3125L259.167 59.4094L208.671 16.134L191.371 40.5745L170.583 28.326L173.036 0L101.342 2.37768L107.6 30.5784L88.4324 40.5165L69.265 3.66249L11.6948 66.8434L44.3707 85.4157L38.1102 105.292L1.5399 88.1764L0 177.017C0 177.017 12.814 173.076 38.4422 165.193Z" sodipodi:nodetypes="ccccccccccccccccccccccccccccccccc"/><path id="shape03" transform="matrix(0.682882819666156 0 0 0.682882819666156 327.029082413979 73.5696320516536)" fill="#db5461" fill-rule="evenodd" stroke="#000000" stroke-width="0.24" stroke-linecap="square" stroke-linejoin="bevel" d="M56.6817 223.672L74.5008 261.347L34.2805 285.615L101.145 345.86L125.752 308.695L165.124 325.665L152.905 373.183L248.619 367.752L231.988 325.835L274.584 308.695L303.264 363.34L380.31 282.899L324.477 261.516L341.617 220.957L399.148 239.285L392.529 129.995L342.805 147.135L328.72 108.102L361.982 80.4405L300.04 24.777L276.111 57.8696L239.455 38.3535L242.849 0L152.396 1.86676L161.051 40.0505L123.885 55.6634L95.5443 5.9397L21.2132 85.1922L70.2581 110.478L55.324 146.456L0 130.164L3.50947 239.682C3.50947 239.682 21.2335 234.345 56.6817 223.672Z" sodipodi:nodetypes="ccccccccccccccccccccccccccccccccc"/><path id="shape0" transform="translate(35.5435898450635, 92.6399984294883)" fill="#ffffff" fill-rule="evenodd" stroke="#ffffff" stroke-width="0.24" stroke-linecap="square" stroke-linejoin="bevel" d="M56.3293 236.953L71.0315 267.958L27.7566 290.359L103.432 366.396L129.501 327.023L159.936 340.32L149.976 388.32L262.056 383.88L250.056 340.32L275.376 329.16L305.016 383.52L405.685 290.493L346.536 267.84L356.136 239.04L417.083 258.456L405.696 124.68L356.376 147.24L345.336 115.2L379.757 85.2167L305.766 23.1425L280.416 58.2L249.955 40.6307L253.55 0L148.497 3.41054L157.666 43.8615L129.58 58.1168L101.494 5.25346L17.1364 95.88L65.0164 122.52L55.8429 151.031L2.25641 126.48L0 253.913C0 253.913 18.7764 248.26 56.3293 236.953Z" sodipodi:nodetypes="ccccccccccccccccccccccccccccccccc"/><path id="shape1" transform="translate(40.4261792254385, 101.117862161937)" fill="#3d5467" fill-rule="evenodd" stroke="#000000" stroke-width="0.24" stroke-linecap="square" stroke-linejoin="bevel" d="M56.6817 223.672L74.5008 261.347L34.2805 285.615L101.145 345.86L125.752 308.695L165.124 325.665L152.905 373.183L248.619 367.752L231.988 325.835L274.584 308.695L303.264 363.34L380.31 282.899L324.477 261.516L341.617 220.957L399.148 239.285L392.529 129.995L342.805 147.135L328.72 108.102L361.982 80.4405L300.04 24.777L276.111 57.8696L239.455 38.3535L242.849 0L152.396 1.86676L161.051 40.0505L123.885 55.6634L95.5443 5.9397L21.2132 85.1922L70.2581 110.478L55.324 146.456L0 130.164L3.50947 239.682C3.50947 239.682 21.2335 234.345 56.6817 223.672Z" sodipodi:nodetypes="ccccccccccccccccccccccccccccccccc"/><path id="shape2" transform="translate(196.199993695156, 238.799993868684)" fill="#ffffff" fill-rule="evenodd" stroke="#ffffff" stroke-width="3.0048" stroke-linecap="square" stroke-linejoin="bevel" d="M52.2 0L10.44 19.8L0 49.2L25.92 84.96L71.28 81L90 37.8C90 37.56 77.4 24.96 52.2 0Z" sodipodi:nodetypes="ccccccc"/>
</svg>
