<?xml version="1.0" encoding="UTF-8"?>
<svg id="Layer_1" data-name="Layer 1" xmlns="http://www.w3.org/2000/svg" xmlns:sodipodi="http://sodipodi.sourceforge.net/DTD/sodipodi-0.dtd" xmlns:krita="http://krita.org/namespaces/svg/krita" version="1.1" viewBox="0 0 3329.5 648">
  <defs>
    <style>
      .cls-1 {
        fill: #8aa29e;
      }

      .cls-1, .cls-2, .cls-3, .cls-4, .cls-5, .cls-6 {
        stroke-linecap: square;
        stroke-linejoin: bevel;
      }

      .cls-1, .cls-2, .cls-3, .cls-4, .cls-6 {
        fill-rule: evenodd;
      }

      .cls-1, .cls-2, .cls-5, .cls-6 {
        stroke-width: .2px;
      }

      .cls-1, .cls-3, .cls-6 {
        stroke: #fff;
      }

      .cls-2, .cls-4, .cls-5 {
        stroke: #000;
      }

      .cls-2, .cls-5 {
        fill: #3d5467;
      }

      .cls-3 {
        stroke-width: 3px;
      }

      .cls-3, .cls-6 {
        fill: #fff;
      }

      .cls-4 {
        fill: #db5461;
        stroke-width: .2px;
      }

      .cls-5 {
        font-family: Raleway-BlackItalic, Raleway;
        font-size: 349.9px;
        font-style: italic;
        font-weight: 800;
      }
    </style>
  </defs>
  <path id="shape0" class="cls-6" d="M226.8,396.2l22.7,47.8-57,37.4,125.4,133.8,35.4-70,22.6,13-17.8,69.6,209.3-1-24-70.1,10.6-8.6,46.6,92.2,174.7-168.5-95-41.3,5.8-18.2,100.3,41.3-28.3-245.3-70.1,37.9-9.1-29.8,49.4-37.4-142.1-128.6-25.9,64.1-26.4-19.9,22.1-50.6-202.3-6.1,23.8,61.2-23.8,9-37.8-75.2-149.3,145.9,73.9,41.1-14.2,44-82.7-37.9-3.5,196.6s29-8.7,86.9-26.2Z" sodipodi:nodetypes="ccccccccccccccccccccccccccccccccc"/>
  <path id="shape01" class="cls-1" d="M239.9,395.9l21.6,45.5-63.5,32.9,111.1,111.7,38.3-57.8,44.7,19.5-14.6,70.5,164.6-6.5-17.6-64,37.2-16.4,43.5,79.8,147.8-136.6-86.9-33.3,14.1-42.3,89.5,28.5-16.7-196.4-72.4,33.1-16.2-47,50.5-44-108.7-91.2-37.2,51.5-44.7-25.8,5.3-59.7-154.3,5,13.5,59.4-41.2,20.9-41.2-77.6-123.9,133.1,70.3,39.1-13.5,41.9-78.7-36.1-3.3,187.1s27.6-8.3,82.7-24.9Z" sodipodi:nodetypes="ccccccccccccccccccccccccccccccccc"/>
  <path id="shape02" class="cls-6" d="M362.4,231.4l10,21.6-29.5,15.6,51.6,53,17.8-27.5,20.8,9.3-6.8,33.5,76.5-3.1-8.2-30.4,17.3-7.8,20.2,37.9,68.7-64.9-40.4-15.8,6.6-20.1,41.6,13.5-7.8-93.3-33.7,15.7-7.5-22.3,23.5-20.9-50.5-43.3-17.3,24.4-20.8-12.2,2.5-28.3-71.7,2.4,6.3,28.2-19.2,9.9-19.2-36.9-57.6,63.2,32.7,18.6-6.3,19.9-36.6-17.1-1.5,88.8s12.8-3.9,38.4-11.8Z" sodipodi:nodetypes="ccccccccccccccccccccccccccccccccc"/>
  <path id="shape03" class="cls-4" d="M365.7,226.3l12.2,25.7-27.5,16.6,45.7,41.1,16.8-25.4,26.9,11.6-8.3,32.4,65.4-3.7-11.4-28.6,29.1-11.7,19.6,37.3,52.6-54.9-38.1-14.6,11.7-27.7,39.3,12.5-4.5-74.6-34,11.7-9.6-26.7,22.7-18.9-42.3-38-16.3,22.6-25-13.3,2.3-26.2-61.8,1.3,5.9,26.1-25.4,10.7-19.4-34-50.8,54.1,33.5,17.3-10.2,24.6-37.8-11.1,2.4,74.8s12.1-3.6,36.3-10.9Z" sodipodi:nodetypes="ccccccccccccccccccccccccccccccccc"/>
  <path id="shape0-2" data-name="shape0" class="cls-6" d="M91.9,329.6l14.7,31-43.3,22.4,75.7,76,26.1-39.4,30.4,13.3-10,48,112.1-4.4-12-43.6,25.3-11.2,29.6,54.4,100.7-93-59.1-22.7,9.6-28.8,60.9,19.4-11.4-133.8-49.3,22.6-11-32,34.4-30-74-62.1-25.4,35.1-30.5-17.6,3.6-40.6-105.1,3.4,9.2,40.5-28.1,14.3-28.1-52.9-84.4,90.6,47.9,26.6-9.2,28.5-53.6-24.6-2.3,127.4s18.8-5.7,56.3-17Z" sodipodi:nodetypes="ccccccccccccccccccccccccccccccccc"/>
  <path id="shape1" class="cls-2" d="M97.1,324.8l17.8,37.7-40.2,24.3,66.9,60.2,24.6-37.2,39.4,17-12.2,47.5,95.7-5.4-16.6-41.9,42.6-17.1,28.7,54.6,77-80.4-55.8-21.4,17.1-40.6,57.5,18.3-6.6-109.3-49.7,17.1-14.1-39,33.3-27.7-61.9-55.7-23.9,33.1-36.7-19.5,3.4-38.4-90.5,1.9,8.7,38.2-37.2,15.6-28.3-49.7-74.3,79.3,49,25.3-14.9,36-55.3-16.3,3.5,109.5s17.7-5.3,53.2-16Z" sodipodi:nodetypes="ccccccccccccccccccccccccccccccccc"/>
  <path id="shape2" class="cls-3" d="M248.4,238.8l-41.8,19.8-10.4,29.4,25.9,35.8,45.4-4,18.7-43.2c0-.2-12.6-12.8-37.8-37.8Z" sodipodi:nodetypes="ccccccc"/>
  <text class="cls-5" transform="translate(914.3 500.1)"><tspan x="0" y="0">Informatrain</tspan></text>
</svg>